PathFileType	4	(X/Y/Z)	N:\Shared_Data\Ergonomics\New Model Testing\10-03-21\Test Cal 01.trc																																																																																																																																																													
DataRate	CameraRate	NumFrames	NumMarkers	Units	OrigDataRate	OrigDataStartFrame	OrigNumFrames	
100	100	6	59	mm	100	1482	148
Frame#	Time	R_Knee_Med			R_Knee_Lat			R_Thigh_Upper			R_Thigh_Front			R_Thigh_Rear			L_Knee_Med			L_Knee_Lat			L_Thigh_Upper			L_Thigh_Front			L_Thigh_Rear			R_Ankle_Med			R_Ankle_Lat			R_Shank_Upper			R_Shank_Front			R_Shank_Rear			L_Ankle_Med			L_Ankle_Lat			L_Shank_Upper			L_Shank_Front			L_Shank_Rear			R_Heel			R_MTP1			R_MTP5			L_Heel			L_MTP1			L_MTP5			V_Sacral			R_Pelvis			R_ASIS			L_ASIS			L_Pelvis			Clavicle			Chest			R_Acromium			L_Acromium			R_Elbow			R_Arm_Parallel			R_Arm_Adjacent			L_Elbow			L_Arm_Parallel			L_Arm_Adjacent			R_Forearm2			R_Forearm1			R_Forearm_Base			L_Forearm2			L_Forearm1			L_Forearm_Base			R_Hand_Lower			R_Hand_Med			R_Hand_Lat			L_Hand_Lower			L_Hand_Med			L_Hand_Lat			LAJC			RAJC			LHJC			RHJC			LKJC			RKJC			
		X1	Y1	Z1	X2	Y2	Z2	X3	Y3	Z3	X4	Y4	Z4	X5	Y5	Z5	X6	Y6	Z6	X7	Y7	Z7	X8	Y8	Z8	X9	Y9	Z9	X10	Y10	Z10	X11	Y11	Z11	X12	Y12	Z12	X13	Y13	Z13	X14	Y14	Z14	X15	Y15	Z15	X16	Y16	Z16	X17	Y17	Z17	X18	Y18	Z18	X19	Y19	Z19	X20	Y20	Z20	X21	Y21	Z21	X22	Y22	Z22	X23	Y23	Z23	X24	Y24	Z24	X25	Y25	Z25	X26	Y26	Z26	X27	Y27	Z27	X28	Y28	Z28	X29	Y29	Z29	X30	Y30	Z30	X31	Y31	Z31	X32	Y32	Z32	X33	Y33	Z33	X34	Y34	Z34	X35	Y35	Z35	X36	Y36	Z36	X37	Y37	Z37	X38	Y38	Z38	X39	Y39	Z39	X40	Y40	Z40	X41	Y41	Z41	X42	Y42	Z42	X43	Y43	Z43	X44	Y44	Z44	X45	Y45	Z45	X46	Y46	Z46	X47	Y47	Z47	X48	Y48	Z48	X49	Y49	Z49	X50	Y50	Z50	X51	Y51	Z51	X52	Y52	Z52	X53	Y53	Z53	X54	Y54	Z54	X55	Y55	Z55	X56	Y56	Z56	X57	Y57	Z57	X58	Y58	Z58	X59	Y59	Z59	

1482	14.81	-28.511995	498.8273	12.647432	-40.02565	492.56671	147.304	55.778694	705.5108	127.13261	46.368702	594.72437	71.842361	12.518309	592.80072	137.91536	-27.37886	501.67245	-63.962063	-79.067589	521.16779	-192.57265	23.038181	720.81952	-183.60043	28.919447	611.61859	-133.79335	-25.404896	606.1012	-192.93436	-67.922844	96.003143	51.130093	-109.57999	78.913094	145.94174	-7.2415686	359.34436	110.04263	-33.727688	244.0631	82.157944	-46.573444	246.49953	144.28862	-82.664589	103.58212	-123.14857	-137.40369	73.371506	-203.41527	-43.987564	344.95892	-183.54254	-54.056038	230.42149	-148.55708	-97.0317	246.33522	-206.8558	-158.43156	51.5793	85.174706	60.485016	46.387386	94.384346	17.837061	26.854071	169.6302	-168.11838	56.59267	-152.73538	24.816977	58.234947	-154.14005	-2.9067473	19.72204	-231.45317	-208.84821	995.17426	-17.917711	-21.10252	1025.8042	186.09926	35.758678	994.64636	122.68374	18.764227	985.56628	-142.50854	-54.757999	1022.0081	-213.1926	53.178364	1534.5383	-20.413443	58.27216	1341.5413	-19.715296	-43.305496	1492.8297	172.46278	-78.880432	1504.2738	-177.46414	-118.33352	1154.8019	279.18332	-113.885	1229.8555	273.67563	-31.675194	1229.7198	252.73361	-161.05952	1159.1321	-290.23605	-156.55173	1235.2288	-291.71826	-75.743362	1246.7234	-284.73709	-15.497054	1137.9525	277.21326	5.6999793	1014.8605	293.17764	29.971693	919.97809	302.12006	-43.440086	1120.4659	-302.05441	-25.35532	1032.2163	-313.35666	-0.90154243	946.98914	-318.79025	37.580696	865.69452	310.7099	76.203545	827.66785	275.6944	15.201417	819.50995	327.45569	13.285133	885.56909	-320.86865	47.184242	843.25708	-303.06796	-10.114442	837.86243	-340.7644	-110.0341395	88.476813	-163.28192	-88.751417	87.4581185	98.5359165	-47.32589527	897.931055	-97.27121938	-35.17639828	904.4224918	92.3173003	-53.2232245	511.42012	-128.2673565	-34.2688225	495.697005	79.975716
1483	14.82	-28.343216	498.83731	12.662235	-39.872307	492.54752	147.31366	55.813545	705.55243	127.1738	46.515232	594.68506	71.935226	12.632199	592.81848	137.97646	-27.428839	501.66403	-63.950405	-79.129906	521.17365	-192.55164	22.964195	720.83221	-183.56209	28.902988	611.64911	-133.76292	-25.47143	606.11017	-192.90584	-67.896339	96.001083	51.124302	-109.56375	78.9123	145.93324	-7.1393838	359.35336	110.11604	-33.714989	244.03979	82.171211	-46.51186	246.45486	144.27556	-82.660683	103.58424	-123.16061	-137.40263	73.351326	-203.38054	-44.026062	344.96509	-183.54541	-54.068478	230.41873	-148.56371	-97.057968	246.33716	-206.85419	-158.42448	51.573833	85.181854	60.487652	46.377689	94.382141	17.846392	26.847731	169.61525	-168.12622	56.586201	-152.74004	24.821787	58.245445	-154.14291	-2.9128046	19.708206	-231.46344	-209.53154	995.21588	-18.092041	-21.20035	1025.7931	186.14937	35.663284	994.63623	122.74323	18.654148	985.56458	-142.4946	-54.854378	1021.9882	-213.1714	53.145588	1534.6942	-20.514208	58.125164	1341.5327	-19.715288	-43.46843	1492.8206	172.43066	-79.025826	1504.2292	-177.4444	-118.43221	1154.7998	279.17789	-114.02406	1229.8136	273.64407	-31.798155	1229.7275	252.75674	-161.21198	1159.0703	-290.19824	-156.67171	1235.1469	-291.67749	-75.890373	1246.7015	-284.71002	-15.611435	1137.9426	277.19138	5.5966973	1014.843	293.15497	29.889929	919.99402	302.13647	-43.552723	1120.4647	-301.92398	-25.502741	1032.1609	-313.33551	-1.0763332	946.90771	-318.7818	37.530113	865.70532	310.71631	76.152435	827.67773	275.68649	15.147436	819.51495	327.50812	13.128426	885.508	-320.79745	47.016418	843.1861	-303.03427	-10.252568	837.77771	-340.37509	-110.0316565	88.467783	-163.270575	-88.7300445	87.4566915	98.528771	-47.5904953	897.9298847	-97.23984393	-35.4306617	904.4152085	92.37871622	-53.2793725	511.41884	-128.2510225	-34.1077615	495.692415	79.9879475
1484	14.83	-28.154743	498.83505	12.693755	-39.744381	492.53433	147.36832	55.856464	705.57611	127.21659	46.552776	595.14978	71.671364	12.741888	592.81195	138.0163	-27.49217	501.65594	-63.924744	-79.190735	521.1803	-192.49786	22.885559	720.85791	-183.548	28.887297	611.68329	-133.73373	-25.547874	606.12183	-192.86856	-67.879143	96.006065	51.137657	-109.58403	78.893539	145.88379	-7.0485325	359.34802	110.17532	-33.66367	244.01804	82.162872	-46.459202	246.41661	144.27762	-82.680222	103.58123	-123.17464	-137.41873	73.373039	-203.42235	-44.058861	344.96448	-183.55128	-54.095871	230.41391	-148.57217	-97.08522	246.33043	-206.82285	-158.41714	51.558067	85.197548	60.489796	46.377846	94.371613	17.839512	26.840328	169.59645	-168.13695	56.579952	-152.73099	24.813499	58.254078	-154.13185	-2.9153645	19.719467	-231.46387	-209.67079	995.17651	-18.044329	-21.283403	1025.7784	186.22078	35.562885	994.61365	122.78877	18.564674	985.57269	-142.45012	-54.96463	1021.9545	-213.1006	52.933136	1534.6602	-20.557747	58.237881	1341.5117	-19.845383	-43.623768	1492.8114	172.42627	-79.193832	1504.1906	-177.45889	-118.5463	1154.7842	279.16257	-114.14661	1229.8048	273.64182	-31.930964	1229.7091	252.72275	-161.37384	1159.0009	-290.15762	-156.85139	1235.0526	-291.6377	-76.06086	1246.6272	-284.70361	-15.725687	1137.9353	277.1904	5.4968743	1014.8322	293.14484	29.816706	919.99945	302.13547	-43.724136	1120.4231	-301.8894	-25.665001	1032.0856	-313.31955	-1.2516108	946.82935	-318.76266	37.458672	865.71765	311.02554	76.097244	827.70142	275.70816	15.097302	819.52966	327.53394	12.951441	885.45447	-320.69794	46.849033	843.12823	-302.97678	-10.465278	837.72125	-340.638	-110.049476	88.4771345	-163.298495	-88.7315865	87.449802	98.5107235	-47.6792291	897.9231368	-97.20816941	-35.52720337	904.3865216	92.41118612	-53.3414525	511.41812	-128.211302	-33.949562	495.68469	80.0310375
1485	14.84	-28.010008	498.84216	12.744608	-39.616104	492.5849	147.4446	55.88459	705.61035	127.26164	46.487087	594.87335	71.894333	12.840624	592.8009	138.07222	-27.543415	501.64627	-63.892616	-79.257042	521.18463	-192.45943	22.818336	720.87573	-183.50334	28.867746	611.71649	-133.70245	-25.61746	606.15405	-192.79893	-67.847336	95.987419	51.14748	-109.5633	78.897461	145.89429	-6.963768	359.30228	110.22858	-33.630119	243.97986	82.195442	-46.423523	246.39499	144.28949	-82.687515	103.58616	-123.16498	-137.42047	73.373039	-203.41328	-44.088581	344.96335	-183.54448	-54.109993	230.42516	-148.56543	-97.107506	246.33426	-206.8098	-158.40559	51.554218	85.202438	60.483578	46.374973	94.40049	17.833113	26.856144	169.62642	-168.12939	56.575844	-152.73575	24.804056	58.234875	-154.14774	-2.9076068	19.70373	-231.45815	-209.52792	995.09814	-17.871889	-21.356411	1025.7764	186.26407	35.464809	994.5965	122.82793	18.491161	985.59082	-142.38496	-55.093338	1021.9316	-213.06644	52.821079	1534.6543	-20.571661	58.055645	1341.4952	-19.835283	-43.775497	1492.8069	172.41255	-79.399727	1504.1423	-177.46144	-118.63321	1154.7794	279.1604	-114.2721	1229.7915	273.62912	-32.048355	1229.7274	252.75183	-161.52652	1158.9515	-290.12268	-156.7464	1234.7805	-291.64026	-76.227074	1246.5533	-284.66574	-15.809238	1137.9314	277.14606	5.4188733	1014.8227	293.09973	29.755499	920.00647	302.15524	-43.936886	1120.3525	-301.85089	-25.812588	1032.0768	-313.2363	-1.4142247	946.78375	-318.71237	37.394936	865.72925	311.03879	76.029381	827.70679	275.71396	15.045282	819.5545	327.56638	12.800426	885.4126	-320.57706	46.67767	843.08167	-302.93732	-10.639728	837.65143	-340.59329	-110.0539925	88.4795995	-163.28913	-88.705318	87.44244	98.520885	-47.67056101	897.9191666	-97.16987166	-35.53599481	904.3573831	92.43246787	-53.4002285	511.41545	-128.176023	-33.813056	495.71353	80.094604
1486	14.85	-27.932817	498.8071	12.783536	-39.526798	492.56274	147.46309	55.922363	705.62079	127.33759	46.71262	594.94788	71.951935	12.899767	592.7981	138.12543	-27.579403	501.65326	-63.867382	-79.323723	521.18872	-192.403	22.737913	720.88037	-183.50862	28.850677	611.74969	-133.67526	-25.681818	606.15558	-192.79568	-67.831161	96.014183	51.156322	-109.54634	78.895805	145.89613	-6.8991513	359.2796	110.27509	-33.58725	243.9501	82.219208	-46.397305	246.34567	144.31485	-82.694611	103.58539	-123.1624	-137.42644	73.372841	-203.41901	-44.125031	344.9635	-183.54544	-54.124691	230.41653	-148.57816	-97.131287	246.33502	-206.80679	-158.43042	51.569092	85.185341	60.484833	46.380455	94.392578	17.837042	26.835344	169.59393	-168.12883	56.570629	-152.73666	24.808495	58.256756	-154.14523	-2.8976517	19.713003	-231.45218	-205.08928	994.53253	-17.335403	-21.415218	1025.7744	186.32207	35.403969	994.58649	122.87113	18.377775	985.57861	-142.36528	-55.199493	1021.9047	-213.02135	52.676601	1534.6418	-20.586348	57.926697	1341.5016	-19.837942	-43.942863	1492.8074	172.39609	-79.59211	1504.0942	-177.49188	-118.73099	1154.7725	279.16833	-114.39478	1229.7947	273.60272	-32.172489	1229.7283	252.73251	-161.68362	1158.8927	-290.08551	-157.56546	1234.9045	-291.62177	-76.408226	1246.4995	-284.62137	-15.911915	1137.9335	277.11499	5.3364882	1014.8165	293.07077	29.670433	920.01532	302.1532	-44.162712	1120.2511	-301.85504	-25.928581	1032.0355	-313.19974	-1.5970203	946.72504	-318.68268	37.323685	865.7417	311.0567	75.957321	827.7309	275.73352	14.977221	819.55017	327.56509	12.608251	885.35541	-320.50668	46.510342	843.03412	-302.87973	-10.810499	837.58984	-340.61285	-110.0605255	88.4791155	-163.290705	-88.6887505	87.454994	98.526226	-46.50477709	897.7350446	-97.20821458	-34.33273997	904.1747838	92.40946688	-53.451563	511.42099	-128.135191	-33.7298075	495.68492	80.123313
1487	14.86	-27.771097	498.81995	12.854259	-39.429768	492.55707	147.51566	55.951241	705.63782	127.40591	46.771152	594.97211	72.041412	12.947218	592.77698	138.18448	-27.634703	501.64264	-63.850975	-79.366669	521.18921	-192.38434	22.842476	720.90155	-183.48268	28.846287	611.77893	-133.63202	-25.737392	606.16742	-192.76375	-67.804848	96.013031	51.166237	-109.52722	78.887299	145.9115	-6.8264532	359.25177	110.32745	-33.509697	243.74884	82.407196	-46.368851	246.32368	144.33484	-82.695007	103.5807	-123.15375	-137.42815	73.374268	-203.41228	-44.139286	344.96783	-183.53107	-54.136745	230.41261	-148.5681	-97.14193	246.34036	-206.79137	-158.43196	51.592628	85.187172	60.487682	46.366524	94.387756	17.848537	26.835188	169.58893	-168.13518	56.569221	-152.73706	24.812428	58.253605	-154.14836	-2.9042988	19.708359	-231.45248	-205.15434	994.513	-17.244801	-21.497919	1025.7733	186.38893	35.347828	994.57404	122.9201	18.32156	985.60846	-142.33273	-55.317673	1021.8765	-212.95343	52.526062	1534.6218	-20.619703	57.767975	1341.5032	-19.796307	-44.095798	1492.8086	172.3853	-79.794106	1504.0625	-177.48885	-118.82009	1154.7665	279.17566	-114.52337	1229.7987	273.57526	-32.275402	1229.7201	252.6964	-161.86694	1158.8324	-290.04407	-157.43298	1234.6722	-291.62378	-76.604233	1246.4535	-284.5867	-16.004452	1137.9381	277.1059	5.2347555	1014.8159	293.04416	29.580688	920.02618	302.16245	-44.360252	1120.1678	-301.82169	-26.064196	1031.9819	-313.14697	-1.7593423	946.67889	-318.62405	37.225636	865.74738	311.09592	75.873451	827.72461	275.74957	14.887693	819.56934	327.63455	12.44132	885.31635	-320.39447	46.343941	842.97034	-302.8147	-10.983279	837.52277	-340.6752	-110.0615785	88.477484	-163.283015	-88.666034	87.450165	98.5388685	-46.55057919	897.7440743	-97.18772948	-34.37854172	904.1535455	92.44087191	-53.500686	511.415925	-128.1176575	-33.6004325	495.68851	80.1849595
